# xmcd
#
# Track frame offsets:
#	150
#	12841
#	25542
#	39706
#	53045
#	62828
#	80625
#	93523
#	109225
#	123910
#	136188
#	143783
#
# Disc length: 2168
#
# Revision: 2
# Processed by: cddbd v1.5.1PL0 Copyright (c) Steve Scherf et al.
# Submitted via: FreeRIP 2.52 
# Normalized: r0:TDELIM( - ),TSWAP
#
DISCID=9b08760c
DTITLE=Various Artist - Yule Be Miserable
DYEAR=2003
DGENRE=Holiday
TTITLE0=Ramsey Lewis - Christmas Blues
TTITLE1=Louis Armstrong - Zat You, Santa Claus?
TTITLE2=Ella Fitzgerald - Santa Claus Got Stuck In My Chimney
TTITLE3=Billy Eckstine - Blue Christmas
TTITLE4=Spike Jones - My Birthday Comes On Christmas
TTITLE5=BB King - Merry Christmas, Baby
TTITLE6=Aaron Neville - Please Come Home For Christmas
TTITLE7=Billie Holiday - Stormy Blues
TTITLE8=Count Basie - Good Morning Blues
TTITLE9=Ella Fitzgerald - Baby, It's Cold Outside
TTITLE10=Spike Jones - Nuttin' For Christmas
TTITLE11=Eric Reed - Christmas Blues
EXTD=
EXTT0=
EXTT1=
EXTT2=
EXTT3=
EXTT4=
EXTT5=
EXTT6=
EXTT7=
EXTT8=
EXTT9=
EXTT10=
EXTT11=
PLAYORDER=
